<?xml version="1.0" encoding="UTF-8" standalone="no"?>
<svg xmlns="http://www.w3.org/2000/svg" xmlns:xlink="http://www.w3.org/1999/xlink" version="1.1" viewBox="113.8 27.5 62 62">
  <defs>
    <linearGradient x1="0" y1="0" x2="1" y2="0" id="linearGradient144" gradientUnits="userSpaceOnUse" gradientTransform="matrix(-22.513,22.513,22.513,22.513,260.047,593.861)">
      <stop style="stop-color:#778fc8;stop-opacity:1" offset="0"/>
      <stop style="stop-color:#2e67b2;stop-opacity:1" offset="1"/>
    </linearGradient>
    <linearGradient x1="0" y1="0" x2="1" y2="0" id="linearGradient162" gradientUnits="userSpaceOnUse" gradientTransform="matrix(21.021,21.021,21.021,-21.021,263.262,593.734)">
      <stop style="stop-color:#f47d5d;stop-opacity:1" offset="0"/>
      <stop style="stop-color:#ed2024;stop-opacity:1" offset="1"/>
    </linearGradient>
    <linearGradient x1="0" y1="0" x2="1" y2="0" id="linearGradient180" gradientUnits="userSpaceOnUse" gradientTransform="matrix(-20.771,-20.771,-20.771,20.771,260.162,591.076)">
      <stop style="stop-color:#fedc77;stop-opacity:1" offset="0"/>
      <stop style="stop-color:#ffcd09;stop-opacity:1" offset="1"/>
    </linearGradient>
    <linearGradient x1="0" y1="0" x2="1" y2="0" id="linearGradient198" gradientUnits="userSpaceOnUse" gradientTransform="matrix(20.769,-20.769,-20.769,-20.769,262.837,591.086)">
      <stop style="stop-color:#7bb47d;stop-opacity:1" offset="0"/>
      <stop style="stop-color:#0c9a48;stop-opacity:1" offset="1"/>
    </linearGradient>
    <linearGradient x1="0" y1="0" x2="1" y2="0" id="linearGradient4745" xlink:href="#linearGradient198" gradientUnits="userSpaceOnUse" gradientTransform="matrix(25.96125,25.96125,-25.96125,25.96125,146.44562,60.266875)"/>
    <linearGradient x1="0" y1="0" x2="1" y2="0" id="linearGradient4748" xlink:href="#linearGradient180" gradientUnits="userSpaceOnUse" gradientTransform="matrix(-25.96375,25.96375,-25.96375,-25.96375,143.10187,60.279375)"/>
    <linearGradient x1="0" y1="0" x2="1" y2="0" id="linearGradient4751" xlink:href="#linearGradient162" gradientUnits="userSpaceOnUse" gradientTransform="matrix(26.27625,-26.27625,26.27625,26.27625,146.97688,56.956875)"/>
    <linearGradient x1="0" y1="0" x2="1" y2="0" id="linearGradient4754" xlink:href="#linearGradient144" gradientUnits="userSpaceOnUse" gradientTransform="matrix(-28.14125,-28.14125,28.14125,-28.14125,142.95812,56.798125)"/>

  </defs>
  <path d="m 113.89687,33.690625 23.23625,23.27875 5.96625,-0.02625 0.025,-5.97 -23.3025,-23.3075 -5.925,6.025" style="fill:url(#linearGradient4754);stroke:none"/>
  <path d="m 152.99062,56.969375 23.23375,-23.27875 -5.985,-6.025 -23.3,23.305 0.025,5.9725 6.02625,0.02625" style="fill:url(#linearGradient4751);stroke:none"/>
  <path d="m 137.13313,60.253125 -22.92,22.96125 5.92375,6.02625 22.9875,-22.99 -0.025,-5.9725 -5.96625,-0.025" style="fill:url(#linearGradient4748);stroke:none"/>
  <path d="m 146.43313,60.278125 -0.025,5.9725 22.98375,22.99 5.98625,-6.02625 -22.91875,-22.96125 -6.02625,0.025" style="fill:url(#linearGradient4745);stroke:none"/>
</svg>